# xmcd
# 
# Track frame offsets:
#     187
#     31960
#     59837
#     90530
#     120290
#     151520
# 
# Disc length: 2359
# 
# Revision: 0
# Processed by: cddbd v1.5.2PL0 Copyright (c) Steve Scherf et al.
# Submitted via: BonkEnc v1.0.6
# 
DISCID=3d093506
DTITLE=John Scofield - Bar Talk
DYEAR=1980
DGENRE=Contemporary Jazz
TTITLE0=Beckon Call
TTITLE1=New Strings Attached
TTITLE2=Never
TTITLE3=How To Marry A Millionaire
TTITLE4=Fat Dancer
TTITLE5=Nature Calls
EXTD=
EXTT0=
EXTT1=
EXTT2=
EXTT3=
EXTT4=
EXTT5=
PLAYORDER=
